<svg width="11" height="15" viewBox="0 0 11 15" fill="none" xmlns="http://www.w3.org/2000/svg">
<path fill-rule="evenodd" clip-rule="evenodd" d="M5.5 0C6.95 0 8.28333 0.456522 9.23333 1.28804C10.4 2.29891 11 3.81522 11 5.70652C11 9.79891 6.18333 14.6087 5.96667 14.8043C5.85 14.9348 5.66667 15 5.5 15C5.33333 15 5.16667 14.9348 5.03333 14.8043C4.81667 14.6087 0 9.79891 0 5.70652C0 3.81522 0.6 2.29891 1.76667 1.28804C2.71667 0.456522 4.05 0 5.5 0ZM3.63333 11.1033C4.33333 12.0815 5.05 12.8967 5.5 13.3859C6.68333 12.1141 9.66667 8.57609 9.66667 5.70652C9.66667 4.67935 9.36667 1.30435 5.5 1.30435C4.51667 1.30435 1.33333 1.63043 1.33333 5.70652C1.33333 7.15761 2.13333 9.0163 3.63333 11.1033ZM5.5 2.82065C4.03333 2.82065 2.85 4.01087 2.85 5.46196C2.85 6.91304 4.03333 8.08696 5.5 8.08696C6.96667 8.08696 8.15 6.89674 8.15 5.44565C8.15 3.99457 6.96667 2.82065 5.5 2.82065ZM4.01667 5.44565C4.01667 6.27717 4.68333 6.94565 5.5 6.94565C6.31667 6.94565 6.98333 6.27717 6.98333 5.44565C6.98333 4.61413 6.31667 3.94565 5.5 3.94565C4.68333 3.94565 4.01667 4.61413 4.01667 5.44565Z" fill="white"/>
</svg>
