<svg width="210" height="64" viewBox="0 0 210 64" fill="none" xmlns="http://www.w3.org/2000/svg">
<path fill-rule="evenodd" clip-rule="evenodd" d="M47.4783 40.4006C47.4783 53.2886 36.8641 63.711 23.7391 63.711C10.6141 63.711 0 53.2886 0 40.4006V27.2886H2.4538H23.7391H45.0815H47.4783V40.4006Z" fill="#572F8C"/>
<path fill-rule="evenodd" clip-rule="evenodd" d="M34.6386 40.4007C35.2663 34.5171 33.4402 27.6249 31.5571 23.5344C31.5571 23.5344 49.0761 8.40505 40.7446 3.86626C32.5272 -0.728572 24.8234 19.0516 24.8234 19.0516H21.9701C21.9701 19.0516 14.2663 -0.728572 5.99184 3.81022C-2.33968 8.34901 15.1793 23.5344 15.1793 23.5344C13.2962 27.6249 11.5272 34.5171 12.0978 40.4007H34.6386Z" fill="white"/>
<path fill-rule="evenodd" clip-rule="evenodd" d="M23.7391 31.4912C28.7609 31.4912 32.8125 35.4697 32.8125 40.4007C32.8125 45.3317 28.7609 49.3102 23.7391 49.3102C18.7174 49.3102 14.6658 45.3317 14.6658 40.4007C14.7228 35.4697 18.7745 31.4912 23.7391 31.4912Z" fill="white"/>
<path fill-rule="evenodd" clip-rule="evenodd" d="M21.856 27.7369C22.3696 27.7369 22.8261 28.1852 22.8261 28.6895V33.1723C22.8261 33.6766 22.5408 34.1249 21.856 34.1249C21.3424 34.1249 20.8859 33.6766 20.8859 33.1723V28.6895C20.9429 28.1292 21.3424 27.7369 21.856 27.7369ZM37.4918 40.4007C37.4918 40.5688 37.4918 40.6809 37.4918 40.849C37.3777 44.4352 35.837 47.6292 33.4973 49.9826C30.9864 52.4482 27.5625 53.9611 23.7391 53.9611C19.9158 53.9611 16.4918 52.4482 13.981 49.9826C11.5842 47.6292 10.1005 44.4352 9.98641 40.9051H9.92935V40.849C9.92935 39.9525 9.92935 38.9999 9.92935 38.1033C9.98641 37.1507 10.0435 36.2542 10.1005 35.3016C10.5 31.2671 11.356 27.2326 12.269 24.2068C9.87228 21.7973 4.50815 16.418 2.68206 11.4309C1.76902 9.02143 1.88315 6.83609 2.68206 5.04298C3.25272 3.69816 4.22282 2.57747 5.36413 1.79298C6.50543 1.0085 7.93206 0.560225 9.41576 0.50419C11.4701 0.448156 13.6957 1.12057 15.6929 2.85764C19.4022 6.10764 22.3125 11.9913 23.7391 15.2413C25.1658 11.9352 28.0761 6.0516 31.7853 2.85764C33.7826 1.1766 36.0081 0.448156 38.0625 0.560225C39.5462 0.616259 40.9158 1.06454 42.1141 1.84902C43.3125 2.6335 44.2255 3.69816 44.7962 5.09902C45.538 6.89212 45.6522 9.07747 44.7962 11.4869C42.913 16.3619 37.5489 21.7973 35.0951 24.0947C35.1522 24.2628 35.2092 24.4309 35.2663 24.599C35.4946 25.4395 35.7228 26.224 35.894 26.8964C36.8641 30.9309 37.606 35.918 37.4918 40.4007ZM15.0082 40.4007H15.0652H15.0082C15.0652 42.7542 16.0353 44.8835 17.5761 46.3964C19.1739 47.9654 21.2853 48.918 23.6821 48.918C26.0788 48.918 28.2473 47.9654 29.788 46.3964C31.3859 44.8275 32.356 42.7542 32.356 40.4007C32.413 36.3663 31.7283 31.7714 30.8723 28.0732C30.644 27.2326 30.4728 26.5602 30.3016 25.9999C30.1304 25.4395 29.9592 24.8792 29.731 24.2628V24.2068L29.1603 22.6378L30.4728 21.5171C30.4728 21.5171 37.9484 15.0732 39.9457 9.74988C40.3451 8.62919 40.3451 7.73264 40.0598 7.06022C39.8886 6.61195 39.6033 6.27574 39.2038 6.0516C38.8043 5.7154 38.3478 5.60333 37.8913 5.54729C37.0353 5.49126 36.0652 5.82747 35.1522 6.61195C30.8152 10.3663 27.5625 19.3318 27.5625 19.3318L26.9348 21.0128H25.1087H22.1984H20.3723L19.7446 19.3318C19.7446 19.3318 16.5489 10.3663 12.212 6.66798C11.2989 5.8835 10.3288 5.54729 9.47282 5.60333C8.95924 5.60333 8.50272 5.77143 8.10326 5.99557C7.76087 6.21971 7.41848 6.55591 7.24728 7.00419C6.96195 7.6766 6.96195 8.62919 7.36141 9.69384C9.35869 15.0171 16.7772 21.4611 16.8342 21.4611L18.1467 22.5818L17.5761 24.2068C16.606 26.9525 15.5788 31.2671 15.1793 35.6378C15.1223 36.4783 15.0082 37.3188 15.0082 38.1594C15.0082 38.9438 15.0082 39.6723 15.0082 40.4007ZM19.8016 40.2887C20.087 41.5214 21.1141 42.6421 22.4266 43.6507C23.7962 44.6594 23.8533 44.6033 25.1658 43.5387C26.4783 42.5861 27.3913 41.4094 27.6766 40.2887C28.4755 36.9826 19.0027 36.9826 19.8016 40.2887ZM25.7364 27.7369C26.25 27.7369 26.7065 28.1852 26.7065 28.6895V33.1723C26.7065 33.6766 26.4212 34.1249 25.7364 34.1249C25.2228 34.1249 24.7663 33.6766 24.7663 33.1723V28.6895C24.7663 28.1292 25.1658 27.7369 25.7364 27.7369Z" fill="#572F8C"/>
<path fill-rule="evenodd" clip-rule="evenodd" d="M172.565 44.9955H176.788C182.723 44.9955 185.804 40.6248 185.804 36.1981C185.804 31.7153 182.723 27.2886 176.788 27.2886H169.484C167.772 27.2886 166.402 28.6334 166.402 30.2584V49.7024H172.622V44.9955H172.565ZM132.677 27.2886C130.965 27.2886 129.595 28.6334 129.595 30.2584V32.78V49.7024H135.815V32.78H144.489L150.082 42.586L146.144 49.7584H152.821L165.318 27.3446H158.413L153.391 36.7584L148.37 27.3446C143.12 27.2886 137.927 27.2886 132.677 27.2886ZM189.228 49.7024C191.454 49.7024 193.679 49.7024 195.905 49.7024L208.402 27.2886H201.497L196.476 36.7024L191.454 27.2886H184.435L193.166 42.53L189.228 49.7024ZM99.2935 41.1291V35.9739H88.2228V32.4437H100.435V27.2886H85.0842C83.3723 27.2886 82.0027 28.6334 82.0027 30.2584V46.7886C82.0027 48.4136 83.3723 49.7584 85.0842 49.7584C90.2772 49.7584 95.2989 49.7584 100.549 49.7584V44.6032H88.2228V41.1851H99.2935V41.1291ZM118.582 35.9739H110.878V27.2886H104.658V49.7024H110.878V41.2412H118.582V49.7024H124.802V27.2886H118.582V35.9739ZM58.7201 27.2886H64.9402V36.4782C64.9402 37.655 64.9402 38.8877 64.9402 40.0644V49.6463H58.7201V27.2886ZM66.3098 36.9265L72.4728 27.2886H79.663L72.3587 38.1032L80.8614 49.7024H73.0435L66.3098 39.7282C65.7391 38.8877 65.7391 37.8231 66.3098 36.9265ZM172.565 32.6679H176.389C180.954 32.6679 180.954 39.7843 176.389 39.7843H172.565V32.6679Z" fill="#572F8C"/>
<path d="M58.8913 53.7371H65.9674V55.25H63.2853V61.0776H61.6304V55.25H58.9484V53.7371H58.8913Z" fill="#572F8C"/>
<path fill-rule="evenodd" clip-rule="evenodd" d="M74.1277 57.3792C74.1277 55.1938 72.4728 53.5688 70.1331 53.5688C67.7364 53.5688 66.1386 55.1938 66.1386 57.3792C66.1386 59.5645 67.7935 61.1895 70.1331 61.1895C72.4728 61.1895 74.1277 59.5645 74.1277 57.3792ZM72.4728 57.4352C72.4728 58.8361 71.5027 59.7326 70.1331 59.7326C68.7636 59.7326 67.8505 58.724 67.8505 57.4352C67.8505 55.9783 68.8206 55.0818 70.1331 55.0818C71.4456 55.0818 72.4728 56.0344 72.4728 57.4352Z" fill="#572F8C"/>
<path fill-rule="evenodd" clip-rule="evenodd" d="M75.3261 53.7371H78.5217C80.5761 53.7371 81.6603 54.2414 81.6603 55.6983C81.6603 56.3707 81.3179 56.819 80.8043 57.2112C81.4891 57.4914 81.8315 58.1078 81.8315 58.9483C81.8315 60.4052 80.6902 61.1336 78.8071 61.1336H75.3261V53.7371ZM76.981 55.194V56.6509H78.9212C79.606 56.6509 80.0054 56.4267 80.0054 55.9224C80.0054 55.306 79.4348 55.194 78.5217 55.194H76.981ZM76.981 59.6207V58.0517H78.8071C79.7772 58.0517 80.2337 58.2759 80.2337 58.8362C80.2337 59.3965 79.7201 59.6207 78.75 59.6207H76.981Z" fill="#572F8C"/>
<path fill-rule="evenodd" clip-rule="evenodd" d="M86.1685 53.5688C84.9701 53.5688 83.7147 53.9611 83.0299 54.6335L83.7717 55.8663C84.5136 55.3059 85.1413 55.0818 85.9402 55.0818C87.1386 55.0818 87.538 55.6982 87.538 56.7628C87.1956 56.6507 86.5109 56.5387 85.9973 56.5387C84.0571 56.5387 82.5163 57.2671 82.5163 58.8921C82.5163 60.293 83.6005 61.1895 85.2554 61.1895C86.3967 61.1895 87.1386 60.7973 87.5951 60.293V61.0775H89.25V56.5947C89.25 54.6895 88.1658 53.5688 86.1685 53.5688ZM87.6522 58.0516V58.7801C87.3098 59.2844 86.6821 59.7887 85.6549 59.7326C84.856 59.7326 84.2853 59.3404 84.2853 58.7801C84.2853 58.0516 85.0842 57.8275 86.2826 57.8275C86.7962 57.8275 87.3668 57.9395 87.6522 58.0516Z" fill="#572F8C"/>
<path fill-rule="evenodd" clip-rule="evenodd" d="M92.3886 53.737H90.7337V63.8792H92.3886V60.5732C92.6739 60.9654 93.4728 61.1895 94.3288 61.1895C96.6114 61.1895 98.0951 59.5085 98.0951 57.2671C98.0951 55.1378 96.6685 53.5688 94.4429 53.5688C93.7011 53.5688 92.8451 53.849 92.3886 54.4094V53.737ZM92.3886 58.7801V56.2585C92.6739 55.6421 93.3587 55.0818 94.2717 55.0257C95.5842 55.0257 96.3831 55.8663 96.3831 57.3792C96.3831 58.724 95.4701 59.6766 94.1576 59.6766C93.4158 59.6766 92.731 59.3964 92.3886 58.7801Z" fill="#572F8C"/>
<path fill-rule="evenodd" clip-rule="evenodd" d="M99.2935 53.7371H100.948V55.8664H102.261C104.658 55.8664 105.457 57.0431 105.457 58.444C105.457 59.7888 104.601 61.0776 102.147 61.0776H99.2935V53.7371ZM100.948 57.3793V59.6207H102.09C103.288 59.6207 103.687 59.2284 103.687 58.5C103.687 57.7715 103.231 57.3793 102.09 57.3793H100.948ZM107.796 53.7371H106.141V61.0776H107.796V53.7371Z" fill="#572F8C"/>
<path fill-rule="evenodd" clip-rule="evenodd" d="M112.875 59.5645H112.019V62.7585H113.56V61.0775H118.924V62.7585H120.465V59.5645H119.437V53.6809H113.731V54.9697C113.731 56.8749 113.56 58.3878 112.875 59.5645ZM114.587 59.5645C114.986 58.668 115.272 57.155 115.272 55.8102V55.1938H117.84V59.5645H114.587Z" fill="#572F8C"/>
<path d="M126.514 55.25H123.889V56.3707C123.889 60.2931 122.576 61.3017 120.75 61.1336L120.636 59.6207C121.435 59.6767 122.291 59.2284 122.291 55.8103V53.7371H128.168V61.0776H126.514V55.25Z" fill="#572F8C"/>
<path fill-rule="evenodd" clip-rule="evenodd" d="M135.929 61.0776V53.7371H132.848C130.394 53.7371 129.538 54.8578 129.538 56.1465C129.538 57.2672 130.166 58.1638 131.25 58.3879L129.082 61.0776H131.022L132.905 58.6681H134.274V61.0776H135.929ZM134.332 57.1552H132.677C131.707 57.1552 131.193 56.7629 131.25 56.2026C131.25 55.5862 131.649 55.194 132.734 55.194H134.332V57.1552Z" fill="#572F8C"/>
<path d="M140.095 53.7371H142.149L144.774 56.5948V53.7371H146.429V56.5948L149.111 53.7371H151.109L147.97 57.0991L151.166 61.1336H149.168L146.772 57.9957L146.429 58.3319V61.1336H144.774V58.3879L144.432 58.0517L142.035 61.1896H140.095L143.234 57.2112L140.095 53.7371Z" fill="#572F8C"/>
<path d="M151.793 61.0776V53.7371H153.448V58.556L157.443 53.7371H158.87V61.0776H157.215V56.3146L153.22 61.0776H151.793Z" fill="#572F8C"/>
<path fill-rule="evenodd" clip-rule="evenodd" d="M160.41 53.7371H163.606C165.66 53.7371 166.745 54.2414 166.745 55.6983C166.745 56.3707 166.402 56.819 165.889 57.2112C166.573 57.4914 166.916 58.1078 166.916 58.9483C166.916 60.4052 165.774 61.1336 163.891 61.1336H160.353V53.7371H160.41ZM162.065 55.194V56.6509H164.005C164.69 56.6509 165.09 56.4267 165.09 55.9224C165.09 55.306 164.519 55.194 163.606 55.194H162.065ZM162.065 59.6207V58.0517H163.891C164.861 58.0517 165.318 58.2759 165.318 58.8362C165.318 59.3965 164.804 59.6207 163.834 59.6207H162.065Z" fill="#572F8C"/>
<path fill-rule="evenodd" clip-rule="evenodd" d="M175.761 57.3792C175.761 55.1938 174.106 53.5688 171.766 53.5688C169.427 53.5688 167.772 55.1938 167.772 57.3792C167.772 59.5645 169.427 61.1895 171.766 61.1895C174.106 61.1895 175.761 59.5645 175.761 57.3792ZM174.106 57.4352C174.106 58.8361 173.136 59.7326 171.766 59.7326C170.397 59.7326 169.484 58.724 169.484 57.4352C169.484 55.9783 170.454 55.0818 171.766 55.0818C173.079 55.0818 174.106 56.0344 174.106 57.4352Z" fill="#572F8C"/>
<path d="M175.932 53.7371H183.008V55.25H180.326V61.0776H178.671V55.25H175.989V53.7371H175.932Z" fill="#572F8C"/>
<path d="M189.057 58.1078H185.462V61.0776H183.807V53.7371H185.462V56.5948H189.057V53.7371H190.712V61.0776H189.057V58.1078Z" fill="#572F8C"/>
<path fill-rule="evenodd" clip-rule="evenodd" d="M192.31 53.7371H193.908V55.8664H195.22C197.617 55.8664 198.416 57.0431 198.416 58.444C198.416 59.7888 197.56 61.0776 195.106 61.0776H192.31V53.7371ZM193.908 57.3793V59.6207H195.049C196.247 59.6207 196.647 59.2284 196.647 58.5C196.647 57.7715 196.19 57.3793 195.049 57.3793H193.908ZM200.755 53.7371H199.101V61.0776H200.755V53.7371Z" fill="#572F8C"/>
<path d="M206.519 57.2672L209.543 61.0776H207.489L205.435 58.444L203.38 61.0776H201.44L204.465 57.3233L201.611 53.7371H203.609L205.492 56.0905L207.375 53.7371H209.372L206.519 57.2672Z" fill="#572F8C"/>
</svg>
