<svg width="17" height="17" viewBox="0 0 17 17" fill="none" xmlns="http://www.w3.org/2000/svg">
<path fill-rule="evenodd" clip-rule="evenodd" d="M15.2857 12.3713V14.5142C15.2873 14.9164 15.1193 15.3007 14.8229 15.5727C14.5265 15.8446 14.1292 15.979 13.7286 15.9428C11.5306 15.7039 9.41928 14.9529 7.56428 13.7499C5.83845 12.6532 4.37524 11.19 3.27857 9.46418C2.07141 7.60076 1.32017 5.47918 1.08571 3.27132C1.04962 2.87195 1.18305 2.47579 1.4534 2.17963C1.72376 1.88346 2.10614 1.71456 2.50714 1.71418H4.65C5.36704 1.70712 5.97821 2.23273 6.07857 2.94275C6.16928 3.62847 6.33643 4.30204 6.57857 4.9499C6.77481 5.47195 6.6493 6.06047 6.25714 6.45704L5.35 7.36418C6.36682 9.15243 7.84747 10.6331 9.63571 11.6499L10.5429 10.7428C10.9394 10.3506 11.5279 10.2251 12.05 10.4213C12.6979 10.6635 13.3714 10.8306 14.0571 10.9213C14.7754 11.0227 15.3037 11.6462 15.2857 12.3713Z" stroke="white" stroke-width="1.5"/>
</svg>
